<?xml version="1.0" encoding="UTF-8"?><svg id="Calque_1" xmlns="http://www.w3.org/2000/svg" xmlns:xlink="http://www.w3.org/1999/xlink" viewBox="0 0 1296 1296"><defs><style>.cls-1{fill:none;stroke:#fff;stroke-miterlimit:10;stroke-width:6px;}</style></defs><image width="5000" height="3333" transform="translate(1296 0) rotate(90) scale(.26 .39)" xlink:href="../../../Users/camil/Downloads/arid-21799.jpg"/><g><path class="cls-1" d="M528.45,61.56h239.09c6.41,0,11.61,5.2,11.61,11.61v77.27h-262.31V73.17c0-6.41,5.2-11.61,11.61-11.61Z"/><path class="cls-1" d="M516.85,1145.56h262.31v77.27c0,6.41-5.2,11.61-11.61,11.61h-239.09c-6.41,0-11.61-5.2-11.61-11.61v-77.27h0Z"/><line class="cls-1" x1="932.07" y1="647.99" x2="775.23" y2="647.99"/><line class="cls-1" x1="520.78" y1="647.99" x2="363.92" y2="647.99"/><circle class="cls-1" cx="648" cy="648" r="127.22"/><circle class="cls-1" cx="648" cy="648" r="63.61"/><rect class="cls-1" x="363.93" y="151.31" width="568.15" height="993.39" rx="11.61" ry="11.61"/></g></svg>