<?xml version="1.0" encoding="UTF-8"?><svg id="Car_3_B" xmlns="http://www.w3.org/2000/svg" xmlns:xlink="http://www.w3.org/1999/xlink" viewBox="0 0 186.79 286.17"><defs><style>.cls-1{fill:url(#linear-gradient-2);}.cls-2{fill:#fff;}.cls-3{fill:#250008;}.cls-4{fill:url(#linear-gradient-17);}.cls-5{fill:url(#linear-gradient-15);}.cls-6{fill:url(#linear-gradient-18);}.cls-7{fill:url(#linear-gradient-14);}.cls-8{fill:#453f3f;}.cls-9{fill:url(#linear-gradient-20);}.cls-10{fill:url(#linear-gradient-6);}.cls-11{fill:#241e1e;}.cls-12{fill:#909090;}.cls-13{fill:#181212;}.cls-14{fill:url(#linear-gradient-11);}.cls-15{fill:#b57300;}.cls-16{fill:url(#linear-gradient-10);}.cls-17{fill:#0a0909;}.cls-18{fill:#1a1515;}.cls-19{fill:gray;}.cls-20{fill:url(#linear-gradient-16);}.cls-21{fill:#231d1f;}.cls-22{fill:#c8c8c8;}.cls-23{fill:#e4e4e4;}.cls-24{fill:url(#linear-gradient-21);}.cls-25{fill:url(#linear-gradient-5);}.cls-26{fill:#2f0000;}.cls-27{fill:#ebde50;}.cls-28{fill:url(#linear-gradient-7);}.cls-29{fill:#454747;}.cls-30{fill:url(#linear-gradient-9);}.cls-31{fill:url(#linear-gradient-22);}.cls-32{fill:url(#linear-gradient-3);}.cls-33{fill:url(#linear-gradient);}.cls-34{fill:#5b5b5b;}.cls-35{fill:url(#linear-gradient-23);}.cls-36{fill:url(#linear-gradient-19);}.cls-37{fill:#5f5a5a;}.cls-38{fill:url(#linear-gradient-4);}.cls-39{fill:url(#linear-gradient-8);}.cls-40{fill:url(#linear-gradient-12);}.cls-41{fill:url(#linear-gradient-13);}.cls-42{fill:#dfdfdf;}</style><linearGradient id="linear-gradient" x1="93.35" y1="258.18" x2="93.35" y2="264.27" gradientUnits="userSpaceOnUse"><stop offset="0" stop-color="#1a1515"/><stop offset="1" stop-color="#524f54"/></linearGradient><linearGradient id="linear-gradient-2" x1="93.5" y1="257.03" x2="93.5" y2="259.63" gradientUnits="userSpaceOnUse"><stop offset="0" stop-color="#181212"/><stop offset="1" stop-color="#1a1515"/></linearGradient><linearGradient id="linear-gradient-3" x1="51.42" y1="47.33" x2="51.42" y2="81.67" gradientUnits="userSpaceOnUse"><stop offset="0" stop-color="#241e1e"/><stop offset=".46" stop-color="#524f54"/><stop offset="1" stop-color="#241e1e"/></linearGradient><linearGradient id="linear-gradient-4" x1="135.58" y1="47.33" x2="135.58" y2="81.67" xlink:href="#linear-gradient-3"/><linearGradient id="linear-gradient-5" x1="49.38" y1="232.19" x2="58.29" y2="228.71" gradientUnits="userSpaceOnUse"><stop offset="0" stop-color="#1a1515"/><stop offset="1" stop-color="#241e1e"/></linearGradient><linearGradient id="linear-gradient-6" x1="385.53" y1="232.19" x2="394.44" y2="228.72" gradientTransform="translate(522.91) rotate(-180) scale(1 -1)" xlink:href="#linear-gradient-5"/><linearGradient id="linear-gradient-7" x1="56.7" y1="264.46" x2="56.7" y2="156.85" gradientUnits="userSpaceOnUse"><stop offset="0" stop-color="#241e1e"/><stop offset="1" stop-color="#524f54"/></linearGradient><linearGradient id="linear-gradient-8" x1="130.21" x2="130.21" xlink:href="#linear-gradient-7"/><linearGradient id="linear-gradient-9" x1="93.59" y1="270.04" x2="93.59" y2="144.84" gradientUnits="userSpaceOnUse"><stop offset="0" stop-color="#181212"/><stop offset="1" stop-color="#241e1e"/></linearGradient><linearGradient id="linear-gradient-10" x1="61.79" y1="233.19" x2="61.79" y2="208.19" xlink:href="#linear-gradient-2"/><linearGradient id="linear-gradient-11" x1="71.19" y1="201.27" x2="67.6" y2="173.88" gradientUnits="userSpaceOnUse"><stop offset="0" stop-color="#181212"/><stop offset="1" stop-color="#6d6d6a"/></linearGradient><linearGradient id="linear-gradient-12" x1="387.52" y1="233.19" x2="387.52" y2="208.19" gradientTransform="translate(512.65) rotate(-180) scale(1 -1)" xlink:href="#linear-gradient-2"/><linearGradient id="linear-gradient-13" x1="396.92" y1="201.27" x2="393.33" y2="173.88" gradientTransform="translate(512.65) rotate(-180) scale(1 -1)" xlink:href="#linear-gradient-11"/><linearGradient id="linear-gradient-14" x1="93.48" y1="158.81" x2="93.48" y2="203.16" xlink:href="#linear-gradient"/><linearGradient id="linear-gradient-15" x1="93.48" y1="275.14" x2="93.48" y2="236.88" xlink:href="#linear-gradient"/><linearGradient id="linear-gradient-16" x1="93.48" y1="142.54" x2="93.48" y2="108.84" xlink:href="#linear-gradient"/><linearGradient id="linear-gradient-17" x1="93.59" y1="96.58" x2="93.59" y2="79.63" xlink:href="#linear-gradient-2"/><linearGradient id="linear-gradient-18" x1="93.35" y1="27.47" x2="93.35" y2="95.58" gradientUnits="userSpaceOnUse"><stop offset="0" stop-color="#211a1a"/><stop offset="1" stop-color="#9a9696"/></linearGradient><linearGradient id="linear-gradient-19" x1="93.35" y1="27.47" x2="93.35" y2="95.58" xlink:href="#linear-gradient"/><linearGradient id="linear-gradient-20" x1="93.53" y1="56.24" x2="93.53" y2="79.72" xlink:href="#linear-gradient-18"/><linearGradient id="linear-gradient-21" x1="93.39" y1="208.85" x2="93.39" y2="224.46" gradientUnits="userSpaceOnUse"><stop offset="0" stop-color="#000"/><stop offset="1" stop-color="#333"/></linearGradient><linearGradient id="linear-gradient-22" x1="93.39" y1="99.5" x2="93.39" y2="118.41" xlink:href="#linear-gradient-21"/><linearGradient id="linear-gradient-23" x1="93.28" y1="85.15" x2="93.28" y2="77.76" gradientUnits="userSpaceOnUse"><stop offset="0" stop-color="#000"/><stop offset="1" stop-color="#383633"/></linearGradient></defs><g><path d="M151.64,120.99c0-.09,0-.18,0-.29v-.06c0-.1-.02-.21-.03-.32,0,0,0-.04,0-.04-.02-.25-.06-.51-.1-.76v-.06s-.02-.04-.02-.04c-.02-.1-.04-.19-.06-.28l-.02-.09v-.05c-.03-.09-.05-.18-.08-.27l-.04-.14c-.03-.09-.05-.19-.09-.29v-.04s-.04-.09-.04-.09c-.04-.11-.08-.23-.13-.36l-.02-.06c-.05-.14-.11-.28-.17-.42-.01-.03-.03-.06-.04-.09v-.02c-.06-.11-.11-.22-.16-.32-.02-.04-.04-.09-.07-.13v-.03c-.06-.09-.11-.19-.17-.28-.03-.05-.06-.11-.09-.17-.05-.09-.11-.19-.18-.29-.03-.05-.06-.1-.09-.15-.07-.1-.13-.2-.21-.31l-.03-.04s-.04-.06-.07-.1c-.11-.15-.22-.29-.33-.44-1.28-1.61-2.6-2.98-3.82-3.96-.55-.53-1.48-1.36-2.45-1.91v-1.83s0-.45,0-.45v-.2c0-.28,0-.56,0-.83v-.15c0-.65,0-1.29-.01-1.9v-.09s0-.08,0-.08v-.74s0-.09,0-.09v-.1s0-.53,0-.53v-.23s0-.05,0-.05v-.96s-.03-.78-.03-.78v-.1s0-.09,0-.09v-.6s-.01-.1-.01-.1v-.11s-.02-.64-.02-.64v-.04s0-.06,0-.06v-.51s-.01-.07-.01-.07v-.06s0-.06,0-.06v-.05s0-.03,0-.04v-.05s-.02-.55-.02-.55v-.1s0-.09,0-.09v-.29s-.02-.19-.02-.19v-.17s-.03-.54-.03-.54v-.03s0-.02,0-.02c0-.2-.02-.38-.03-.57v-.09s0-.05,0-.05c0-.13-.01-.26-.02-.4v-.07s0-.09,0-.09c0-.1-.01-.19-.02-.28v-.08s-.01-.13-.01-.13c0-.09-.01-.17-.02-.25v-.05s.03-.05,.03-.08v.02s.01-.08,.01-.08l.02-.09,.02-.09v-.05s.03-.07,.03-.07l.02-.07v-.03s.02-.08,.02-.08v-.05s.02-.04,.02-.04v-.06s.02-.02,.02-.02v-.04s.03-.09,.03-.09v-.07s.02-.03,.02-.03l.06-.3,.03-.15v-.02s.02-.06,.02-.06v-.03s.03-.11,.03-.11l.02-.08,.02-.11v-.04s.02-.06,.02-.06v-.04s.02-.08,.02-.08l.02-.1v-.06s.04-.15,.04-.15v-.04s.01-.02,.01-.02c.04-.23,.09-.48,.13-.73v-.03s.01-.04,.01-.04l.04-.22,.02-.09,.03-.16v-.07s.03-.1,.03-.1l.02-.1,.02-.14v-.05s.01-.04,.01-.04c.01-.08,.03-.17,.04-.26,0,0,0-.02,0-.02,.05-.3,.1-.61,.15-.93v-.08s.03-.08,.03-.08l.03-.19,.02-.1,.04-.27,.02-.12,.04-.29v-.04s.01-.05,.01-.05l.02-.11,.03-.19s0-.02,0-.02c.05-.36,.1-.73,.15-1.11v-.04s.01-.04,.01-.04l.04-.31v-.07s.02-.06,.02-.06l.02-.12,.02-.18v-.07s.02-.07,.02-.07l.04-.32v-.12s.05-.35,.05-.35v-.02s0-.04,0-.04c.04-.39,.09-.79,.13-1.21v-.05s0-.05,0-.05l.03-.34v-.15s.05-.35,.05-.35v-.16s.03-.15,.03-.15l.02-.18v-.1s.01-.05,.01-.05l.03-.36v-.06s0-.05,0-.05c.03-.41,.06-.83,.09-1.26v-.07s.01-.09,.01-.09v-.23s.02-.12,.02-.12v-.19s.03-.34,.03-.34v-.2s.03-.34,.03-.34v-.11s.01-.1,.01-.1v-.11s.01-.23,.01-.23v-.19c.03-.41,.04-.82,.05-1.23v-.21s.01-.33,.01-.33v-.24s0-.22,0-.22v-.11s0-.12,0-.12v-.13s0-.16,0-.16v-.17s0-.25,0-.25v-.1s0-.22,0-.22v-.26c0-.16,0-.33,0-.5v-.38c0-.47-.02-.94-.03-1.41v-.09c-.02-.45-.04-.9-.06-1.35v-.14c-.03-.44-.06-.88-.09-1.32v-.03s0-.09,0-.09c-.04-.48-.08-.96-.12-1.43-.11-1.18-.25-2.37-.4-3.52,0,0,0-.02,0-.03h0c-.1-.73-.21-1.47-.33-2.21v-.03s-.01-.06-.01-.06c-.06-.35-.12-.71-.18-1.08l-.03-.14c-.06-.35-.12-.7-.2-1.06l-.02-.1s0-.02,0-.03c-.15-.76-.3-1.52-.47-2.25v-.03c-.09-.37-.17-.73-.26-1.1v-.05s-.03-.06-.03-.06c-.09-.38-.19-.77-.29-1.15v-.02c-.3-1.15-.63-2.28-.97-3.35-.01-.03-.02-.07-.03-.08-.12-.37-.24-.75-.37-1.11,0-.01,0-.02-.01-.04h0c-.08-.24-.17-.49-.26-.73-.36-1-.74-1.97-1.15-2.92,0,0,0,0,0-.01-.09-.22-.19-.44-.29-.66l-.03-.06c-.1-.21-.19-.42-.29-.63l-.03-.05c-.33-.7-.67-1.38-1.02-2.02,0,0-.01-.02-.01-.03-.11-.2-.22-.4-.34-.61l-.05-.1c-.1-.17-.2-.35-.3-.52l-.07-.12c-.1-.17-.21-.34-.31-.51l-.02-.03-.05-.08c-.12-.2-.25-.39-.38-.6-.27-.4-.54-.8-.81-1.17-.03-.04-.07-.09-.09-.12-.11-.15-.22-.29-.33-.44l-.08-.1-.03-.05c-.1-.13-.21-.26-.31-.4l-.13-.16c-.11-.13-.21-.26-.32-.39-.04-.05-.08-.09-.12-.14-.14-.16-.27-.31-.41-.47l-.02-.03s-.01-.01-.02-.02c-.16-.17-.31-.34-.48-.51l-.07-.08c-.13-.14-.26-.27-.39-.4l-.11-.11-.05-.05c-.11-.11-.22-.21-.33-.32-.06-.06-.12-.11-.17-.16-.11-.1-.22-.2-.33-.3-.06-.05-.12-.11-.17-.15-.12-.1-.23-.2-.35-.3l-.05-.04-.11-.09c-.15-.12-.31-.25-.48-.38l-.05-.04c-.18-.13-.36-.27-.54-.39-.04-.03-.07-.05-.11-.08l-.05-.03c-.13-.09-.26-.18-.39-.27-.07-.05-.14-.09-.21-.13-.12-.08-.24-.15-.36-.23l-.21-.13c-.12-.07-.24-.14-.37-.21l-.03-.02c-.06-.04-.12-.07-.19-.11-.13-.07-.26-.14-.39-.21l-.04-.03c-.05-.03-.1-.05-.15-.08-.2-.1-.4-.2-.6-.3-.5-.24-1.03-.48-1.68-.77l-.12-.05-.13-.06c-.53-.23-1.07-.46-1.61-.69l-.3-.12c-.56-.23-1.12-.45-1.63-.65l-.14-.05-.08-.03c-.58-.22-1.14-.43-1.68-.63,0,0-.02,0-.03,0l-.04-.02c-.53-.19-1.09-.38-1.72-.59l-.11-.04-.13-.04c-.54-.18-1.1-.36-1.67-.54l-.24-.07c-.61-.19-1.17-.35-1.72-.51h-.04s-.04-.02-.04-.02c-.59-.17-1.19-.33-1.79-.49,0,0-.03,0-.03,0-.56-.15-1.15-.29-1.75-.44l-.17-.04c-.56-.13-1.14-.27-1.71-.39l-.13-.03c-1.19-.25-2.38-.48-3.55-.68-.57-.1-1.15-.19-1.73-.27h-.04s-.05-.01-.05-.01c-.58-.08-1.15-.16-1.72-.23-2.57-.31-5.05-.46-7.35-.46h-.76c-1.1,0-2.27,.04-3.47,.11-.53,.03-1.07,.07-1.66,.12h-.07c-.56,.06-1.13,.11-1.69,.18-.02,0-.04,0-.05,0,.01,0,.03,0,.03,0h0c-1.17,.13-2.36,.3-3.56,.49-.57,.09-1.16,.2-1.75,.31l-.14,.03c-.58,.11-1.16,.22-1.74,.35l-.13,.03c-.64,.13-1.22,.26-1.79,.4-.6,.14-1.22,.29-1.83,.45l-.07,.02c-.55,.14-1.13,.3-1.76,.47l-.12,.04-.09,.03c-.56,.16-1.14,.33-1.71,.5l-.24,.08c-.62,.19-1.18,.37-1.72,.55l-.07,.02-.09,.03c-.61,.2-1.19,.4-1.76,.61h-.03s-.03,.02-.03,.02c-.54,.19-1.11,.4-1.73,.64l-.06,.02-.2,.08c-.53,.2-1.07,.42-1.65,.66l-.24,.1-.07,.03c-.55,.23-1.11,.47-1.65,.7l-.14,.06-.1,.04c-.63,.28-1.2,.54-1.72,.78-.19,.09-.39,.19-.58,.28l-.11,.06-.07,.04c-.13,.07-.25,.13-.38,.2-.06,.03-.12,.07-.18,.1l-.04,.02-.03,.02c-.1,.06-.21,.12-.31,.18-.05,.03-.1,.06-.15,.09l-.08,.05c-.1,.06-.21,.13-.32,.2l-.19,.13-.04,.02c-.1,.07-.2,.13-.3,.2-.08,.05-.15,.1-.22,.16-.1,.07-.2,.14-.3,.22l-.04,.03c-.06,.04-.12,.09-.17,.13-.1,.08-.2,.15-.3,.23-.07,.05-.14,.11-.21,.17-.1,.08-.2,.16-.29,.24l-.05,.04s-.1,.08-.14,.12c-.1,.09-.21,.18-.31,.27l-.06,.05s-.08,.07-.12,.1c-.11,.1-.22,.2-.33,.31l-.04,.04s-.06,.06-.09,.09c-.31,.29-.62,.6-.92,.91l-.07,.07-.03,.03c-.11,.12-.23,.24-.34,.37l-.1,.11-.04,.05c-.1,.11-.19,.22-.29,.33-.04,.05-.09,.1-.13,.15l-.02,.03c-.09,.11-.18,.22-.27,.32-.05,.06-.1,.13-.15,.19-.09,.11-.17,.22-.26,.33l-.15,.19c-.09,.11-.17,.22-.26,.35-.04,.06-.09,.12-.13,.18-.08,.11-.17,.23-.25,.35l-.13,.19c-.08,.12-.17,.25-.25,.37l-.04,.05-.08,.12c-.09,.14-.18,.27-.27,.41l-.05,.07-.05,.08c-.1,.16-.2,.32-.3,.48v.02s-.05,.06-.05,.06c-.35,.57-.7,1.18-1.02,1.79l-.04,.07-.02,.03c-.09,.17-.18,.34-.26,.5l-.06,.11-.02,.03c-.08,.16-.16,.32-.24,.48l-.08,.16c-.08,.15-.15,.31-.22,.47l-.04,.08-.04,.08c-.07,.16-.14,.31-.21,.46l-.08,.18c-.07,.16-.14,.32-.21,.48l-.02,.05-.05,.11c-.07,.17-.14,.34-.22,.51l-.03,.06-.03,.07c-.08,.18-.15,.37-.22,.55l-.04,.1c-.09,.21-.17,.43-.25,.65,0,0,0,.03-.01,.04-.29,.76-.57,1.56-.84,2.4v.04s-.03,.05-.03,.05c-.13,.4-.26,.81-.38,1.21v.02s-.01,.03-.02,.03c-.11,.38-.22,.76-.33,1.13v.03s-.02,.03-.02,.03c-.35,1.23-.66,2.51-.95,3.8l-.02,.08-.02,.08c-.08,.38-.16,.76-.24,1.15v.02s0,.02,0,.02c-.08,.42-.16,.83-.24,1.26v.07s-.03,.08-.03,.08c-.15,.8-.29,1.63-.41,2.45l-.02,.14c-.25,1.65-.46,3.35-.62,5.04-.05,.49-.09,1-.13,1.51v.12c-.04,.5-.07,.99-.1,1.46v.03c-.05,1-.08,2.03-.09,3.08,0,.18,0,.35,0,.54-.01,8.12,1.17,15.31,1.88,18.89l.02,.08,.03,.12c.07,.34,.13,.63,.18,.87v.03s.03,.09,.03,.09v.03s0,.01,.01,.02h0s.01,.07,.01,.07v.04s.01,.02,.02,.04v.06s.02,.04,.02,.04v.06s0-.03,0-.03v.06s.05,.16,.05,.16h0c0,.09-.01,.17-.02,.25,0,0,0,.06,0,.06l-.03,.44v.07c-.01,.15-.02,.3-.03,.47v.06s0,.03,0,.03c0,.16-.02,.33-.03,.5v.03s0,.04,0,.04l-.02,.51v.04s0,.03,0,.03c0,.19-.01,.38-.02,.58v.04s0,.05,0,.05v.43s-.02,.14-.02,.14v.07s0,.06,0,.06l-.02,.61v.11s0,.01,0,.02v.07s0,.05,0,.05v.51s-.01,.03-.01,.03v.04s-.01,.63-.01,.63v.14s-.01,.67-.01,.67v.05s0,.11,0,.11v.69s-.01,.09-.01,.09v.09s0,.39,0,.39v.33s0,.07,0,.07v.07s0,.68,0,.68v.08s0,.09,0,.09v.38s0,.35,0,.35v.21s0,.73,0,.73v.27s0,.73,0,.73v.17s0,.09,0,.09v.74s0,.11,0,.11v.81s0,.27,0,.27v1.01c-1.02,.5-2.06,1.37-2.83,2.12-1.23,.98-2.55,2.35-3.82,3.96-.12,.15-.22,.29-.34,.45-.02,.03-.04,.06-.07,.1l-.03,.05c-.07,.1-.14,.2-.2,.3l-.1,.16c-.06,.09-.11,.18-.17,.28-.03,.05-.06,.11-.09,.16-.05,.09-.1,.19-.15,.28l-.02,.03s-.05,.09-.07,.13c-.05,.11-.1,.21-.15,.32v.02s-.04,.06-.05,.08c-.06,.14-.12,.29-.18,.43,0,.03-.02,.05-.03,.08-.04,.11-.08,.22-.12,.35l-.03,.09-.02,.04c-.03,.09-.05,.18-.08,.28l-.04,.15c-.02,.09-.04,.17-.06,.25-.01,.05-.02,.1-.03,.14-.02,.09-.04,.19-.06,.28v.03s-.02,.07-.02,.07c-.02,.12-.04,.25-.06,.37-.02,.13-.03,.26-.04,.38,0,.02,0,.05,0,.07,0,.1-.01,.19-.02,.28v.09c0,.09-.01,.17-.01,.25,0,0,0,.02,0,.02v.06c0,.09,0,.17,0,.27v.05c0,.1,0,.2,.01,.29,.07,1.14,.34,1.88,.37,1.96,.07,.19,.19,.36,.35,.5,.06,.07,.13,.14,.2,.2,.27,.22,.62,.34,.96,.34,.12,0,.24-.01,.35-.04,2.48-.57,4.86-1.37,6.73-2.25v.33s.01,.59,.01,.59v.56s.02,.71,.02,.71v.47s.02,.79,.02,.79v.45s.02,.75,.02,.75c.16,10.88,.43,22.62,.71,30.67l.03,.7c0,.23,.02,.46,.03,.69,0,.21,.02,.42,.02,.61v.04s0,.03,0,.03v.2s.03,.41,.03,.41v.02l.02,.36v.2s0,.07,0,.07l.02,.55s0,.03,0,.04v.16s.02,.33,.02,.33v.09s.01,.15,.01,.15l.02,.34s0,.03,0,.03v.29s.02,.12,.02,.12v.1s.03,.43,.03,.43c0,0,0,.02,0,.03,0,.13,.01,.25,.02,.37v.05s0,.04,0,.04v.2s.02,.18,.02,.18l.02,.33v.08s.03,.31,.03,.31v.08s.01,.1,.01,.1c.59,8.87-1,18.37-2.27,26l-.12,.71c-1.35,8.1-1.31,17.37-1.1,21.14v.16s.01,.05,.01,.05v.04s0,.04,0,.04v.07s0,.07,0,.07v.04s0,.02,0,.02v.12s.01,.04,.01,.04c0,0,0,.02,0,.02v.06s0,.02,0,.02v.11s.01,.04,.01,.04v.06s.01,.06,.01,.06v.06s.01,.07,.01,.07l.02,.13v.08s.01,.06,.01,.06l.02,.16v.12c.02,.06,.03,.12,.04,.19v.08s.01,.03,.01,.03l.02,.13v.07s.02,.11,.02,.11l.03,.22v.04s.01,.06,.01,.06l.03,.23v.09s.04,.14,.04,.14l.02,.11v.05s.01,.04,.01,.04l.04,.25,.02,.1,.03,.19,.02,.1v.03s.01,.05,.01,.05l.05,.29v.07s.05,.21,.05,.21l.02,.1v.03s.02,.05,.02,.05l.02,.09,.05,.25v.04s.06,.26,.06,.26v.07s.03,.07,.03,.07l.07,.35h0s0,.03,0,.05l.06,.29,.02,.08v.02s0,.03,.01,.03l.08,.39v-.02s0,.06,0,.06l.09,.4v.04s.03,.1,.03,.1l.07,.33c.03,.14,.07,.29,.1,.45,.03,.15,.07,.3,.11,.46l.08,.33,.03,.14c.79,3.31,1.77,6.55,2.91,9.65,.93,3.39,4.22,14.6,8.55,20.2,.09,.11,.18,.23,.27,.33,.02,.03,.05,.06,.08,.09l.03,.03,.02,.03c.05,.06,.11,.13,.17,.19,.03,.03,.06,.06,.09,.1l.03,.03,.04,.04c.05,.05,.09,.1,.14,.15,.03,.03,.06,.06,.09,.1l.04,.04,.03,.03c.05,.05,.1,.1,.15,.16,.04,.04,.07,.07,.11,.11l.03,.03c.06,.06,.12,.12,.19,.18l.12,.11,.03,.03c.06,.06,.13,.12,.2,.18l.15,.13c.06,.06,.13,.11,.2,.17l.11,.09,.05,.04c.07,.06,.14,.11,.2,.17,.06,.05,.12,.09,.17,.13,.07,.06,.14,.11,.22,.17l.1,.08,.07,.05c.07,.05,.15,.11,.22,.16l.18,.13,.24,.17,.03,.02,.15,.1c.08,.06,.16,.11,.24,.16l.13,.09,.06,.04c.08,.05,.17,.11,.25,.16l.18,.12c.09,.06,.18,.11,.26,.16l.18,.11c.09,.06,.19,.11,.28,.17l.18,.1c.1,.06,.2,.11,.3,.17l.06,.04,.11,.06c.1,.06,.21,.11,.3,.16l.14,.07,.04,.02c.11,.06,.22,.11,.32,.17l.18,.09c.11,.06,.23,.12,.34,.17l.05,.03,.11,.06c.12,.06,.24,.12,.37,.18l.06,.03,.09,.04c.13,.06,.26,.12,.4,.18l.05,.02,.08,.04c.14,.06,.28,.13,.43,.19l.05,.02,.06,.03c.15,.07,.31,.13,.47,.2h.03s.06,.03,.06,.03c.17,.07,.34,.14,.52,.21h-.03s.05,0,.05,0c0,0,.02,0,.02,0,.69,.27,1.41,.54,2.15,.8,.58,.2,1.19,.4,1.79,.58l.1,.03c7.02,2.16,15.36,3.3,24.11,3.3,.02,0,.05,0,.07,0,.02,0,.05,0,.07,0,8.67,0,16.94-1.12,23.91-3.24l.11-.03h.04s.13-.05,.13-.05l.17-.05,.08-.02,.12-.04,.05-.02,.15-.05,.1-.03c.1-.04,.21-.07,.32-.1h.03s.07-.03,.07-.03h.04s.07-.04,.07-.04h.03c.12-.05,.25-.09,.38-.14l.13-.04,.12-.04,.09-.03c.09-.03,.18-.06,.27-.1,.08-.03,.17-.06,.25-.09l.09-.03c.09-.03,.17-.06,.25-.09l.18-.07h.03s.04-.03,.04-.03c.11-.04,.22-.08,.33-.13l.25-.1c.11-.04,.21-.08,.32-.13,.07-.03,.15-.06,.22-.09h.04c.1-.06,.21-.1,.31-.14,.07-.03,.13-.06,.2-.08l.05-.02c.1-.04,.2-.08,.3-.13l.24-.11c.1-.04,.2-.09,.3-.13l.15-.07,.1-.05,.07-.03,.21-.1,.24-.11,.06-.03,.23-.11,.23-.11c.09-.05,.18-.09,.28-.14l.09-.04,.14-.07c.09-.04,.18-.09,.27-.14l.05-.03,.17-.09c.09-.05,.17-.09,.25-.14,.08-.04,.15-.08,.23-.13l.2-.11,.06-.03,.21-.12,.18-.11,.07-.04,.21-.13c.08-.05,.16-.1,.24-.15l.21-.13,.23-.15,.2-.13c.07-.05,.14-.09,.2-.14h.02c.07-.06,.13-.1,.2-.15,.08-.05,.15-.11,.22-.16l.04-.03s.1-.07,.15-.11c.07-.05,.14-.11,.21-.15,.07-.05,.13-.1,.18-.14,.05-.04,.11-.08,.16-.12l.06-.04,.06-.05,.11-.09c.05-.04,.11-.09,.16-.13l.04-.03,.05-.04,.12-.1c.06-.05,.13-.11,.18-.16l.03-.02s.09-.08,.14-.12c.05-.04,.09-.08,.14-.12l.05-.04,.04-.03,.12-.11c.06-.06,.12-.12,.18-.17l.03-.03s.08-.08,.11-.11c.05-.05,.09-.09,.14-.14l.05-.05,.04-.05,.09-.09c.06-.06,.12-.13,.18-.19l.03-.03s.06-.06,.09-.1c.05-.06,.11-.12,.16-.18l.03-.04,.03-.03s.04-.05,.06-.08c.09-.11,.18-.22,.27-.34,3.06-3.97,5.61-10.72,7.21-15.72,3.54-7.98,5.16-15.79,5.69-18.79h0c.02-.13,.04-.25,.06-.37,.02-.12,.04-.24,.06-.36,0-.01,0-.02,0-.03,.02-.11,.04-.21,.05-.31v-.02s0-.03,0-.03v-.05s.04-.22,.04-.22v-.04s0-.03,0-.03v-.09s.04-.17,.04-.17v-.09s.02-.06,.02-.06l.03-.18v-.06s.01-.04,.01-.04l.02-.14v-.07s.02-.05,.02-.05v-.06s.02-.07,.02-.07v-.12s.02-.07,.02-.07v-.04s.02-.11,.02-.11v-.06s.01-.05,.01-.05v-.07s.02-.14,.02-.14l.02-.14v-.03s.01-.09,.01-.09v-.04s.01-.09,.01-.09v-.03s0-.08,0-.08v-.1s.01-.06,.01-.06v-.08s0,.02,0,.02v-.08s0-.02,0-.02c0-.12,.02-.23,.02-.33,.21-3.77,.25-13.04-1.1-21.14l-.08-.49-.13-.77-.02-.12-.04-.22-.05-.31-.03-.16c-.03-.16-.05-.32-.08-.48v-.06s-.06-.33-.06-.33l-.1-.63-.04-.24v-.08s-.02-.08-.02-.08c-.04-.25-.08-.5-.12-.76l-.03-.17-.02-.12-.07-.45-.03-.21-.05-.3-.11-.72-.03-.17v-.06c-.06-.32-.11-.65-.15-.97-.71-4.85-1.59-12.1-1.11-18.98l.02-.32v-.07s.02-.27,.02-.27v-.07s.03-.37,.03-.37v-.08s.02-.26,.02-.26v-.09s0-.04,0-.05v-.09s.02-.33,.02-.33v-.08s.03-.47,.03-.47l.02-.5v-.04s0-.02,0-.03v-.19c.02-.28,.03-.58,.04-.87v-.1s.01-.19,.01-.19v-.34s.02-.04,.02-.04v-.19s.02-.41,.02-.41v-.04s0-.04,0-.04l.02-.42v-.15s0-.04,0-.06l.02-.66v-.04s0-.24,0-.24v-.42s.02-.04,.02-.04l.02-.43v-.27s.01-.06,.01-.06v-.03s.02-.62,.02-.62v-.11s.01-.29,.01-.29v-.44s.02-.03,.02-.03v-.03s.02-.7,.02-.7v-.05s0-.03,0-.03c.02-.52,.03-1.05,.05-1.6h0s0-.04,0-.06c.02-.55,.03-1.11,.05-1.68v-.05s.01-.35,.01-.35l.04-1.39v-.07s.05-1.82,.05-1.82h0s0-.02,0-.04c.19-7.31,.34-15.47,.44-23v-.07s0-.05,0-.05v-.5s.01-.48,.01-.48v-.11s0-.11,0-.11v-.11c0-.18,0-.36,0-.54,1.81,.82,4.03,1.55,6.35,2.08,.11,.03,.23,.04,.35,.04,.35,0,.69-.12,.96-.34,.07-.06,.14-.12,.2-.2,.15-.13,.28-.3,.35-.5,.04-.09,.35-.95,.39-2.26,0,0,0-.05,0-.06,0-.08,0-.17,0-.25v-.07Z"/><g><path class="cls-37" d="M71.83,258.62c-.14-1.3-.87-3.48-.87-3.48l-5.94-12.17s-1.32-2.32-3.06-5.2l-14.76-6.98s3.62,14.2,8.55,20.58c2.55,3.3,7.78,6.17,14.69,8.18,.72-.03,1.48-.23,1.4-.93Z"/><path class="cls-37" d="M130.96,251.37c4.93-6.38,8.55-20.58,8.55-20.58l-14.24,6.73c-1.81,2.98-3.21,5.44-3.21,5.44l-5.94,12.17s-.73,2.17-.87,3.48c-.07,.61,.49,.84,1.11,.91,6.87-2,12.06-4.87,14.61-8.16Z"/><path class="cls-33" d="M97.19,250.79c-.48,.14-2.18,1.33-3.84,2.56-1.66-1.23-3.36-2.42-3.84-2.56l-42.32-20s3.62,14.2,8.55,20.58c4.93,6.38,19.85,11.16,37.53,11.16l.07-.12,.07,.12c17.68,0,32.61-4.78,37.53-11.16,4.93-6.38,8.55-20.58,8.55-20.58l-42.32,20Z"/><path class="cls-1" d="M70.96,255.14l-1.15-2.35c-.8,.33-1.61,1.13-1.61,2.64s-.8,2.47-1.4,2.93c1.15,.42,2.36,.82,3.62,1.19,.72-.03,1.48-.23,1.4-.93-.14-1.3-.87-3.48-.87-3.48Zm47.97,.29c0-1.54-.85-2.34-1.66-2.66l-1.16,2.37s-.73,2.17-.87,3.48c-.07,.61,.49,.84,1.11,.91,1.35-.39,2.63-.82,3.84-1.28-.57-.5-1.26-1.39-1.26-2.82Z"/><g><path class="cls-3" d="M49.95,237.61s4.2,15.94,19.71,18.84l1.45-1.16s-5.07-7.68-5.51-7.68-15.65-10-15.65-10Z"/><path class="cls-26" d="M69.49,255.79c-6.13-1.22-11.16-4.63-14.98-10.16-1.76-2.54-2.84-4.99-3.42-6.53,1.47,.96,3.82,2.5,6.18,4.03,6.05,3.92,7.56,4.82,8.06,5.04,.5,.46,2.83,3.8,4.95,7l-.79,.63h0Z"/></g><g><path class="cls-3" d="M137.19,237.61s-4.2,15.94-19.71,18.84l-1.45-1.16s5.07-7.68,5.51-7.68,15.65-10,15.65-10Z"/><path class="cls-26" d="M117.64,255.79c6.13-1.22,11.16-4.63,14.98-10.16,1.75-2.54,2.84-4.99,3.42-6.53-1.47,.96-3.82,2.5-6.18,4.03-6.04,3.92-7.56,4.82-8.05,5.04-.5,.46-2.83,3.8-4.95,7l.79,.63h0Z"/></g><g><path class="cls-11" d="M143.09,192.32c-1.3-7.83-3.04-17.83-2.39-27.17,.65-9.35,1.74-60.87,.87-71.74,0,0,3.26-13.48,1.96-27.17-1.31-13.7-5.87-29.56-16.96-34.78-11.09-5.22-23.26-7.83-32.61-7.83h-.76c-9.35,0-21.52,2.61-32.61,7.83-11.09,5.22-15.65,21.09-16.96,34.78-1.3,13.69,1.96,27.17,1.96,27.17-.87,10.87,.22,62.39,.87,71.74,.65,9.35-1.09,19.35-2.39,27.17-1.3,7.83-1.3,16.95-1.09,20.87,.22,3.91,2.83,18.04,9.35,28.91,6.52,10.87,18.91,13.48,18.91,13.48l21.09-5.22-2.17-75,3.42-66.17,3.42,66.17-2.17,75,21.09,5.22s12.39-2.61,18.91-13.48c6.52-10.87,9.13-25,9.35-28.91,.22-3.91,.22-13.04-1.09-20.87Z"/><path class="cls-32" d="M46.9,77.98c2.17,6.52,3.48,32.39,3.48,32.39l9.13-42.82-.43-9.78-2.61-11.09-8.26-.42c-2.54,6.2-3.93,13.35-4.57,19.99-.2,2.05-.29,4.1-.3,6.09,1.24,1.22,2.61,2.78,3.57,5.65Z"/><path class="cls-38" d="M139.64,47.99c-.48-1.09-.78-1.75-.78-1.75l-8.48,.43-2.61,11.09-.43,9.78,9.13,42.82s1.31-25.87,3.48-32.39c1.04-3.11,2.57-4.69,3.89-5.96-.02-1.9-.12-3.83-.3-5.78-.57-6.03-1.78-12.47-3.89-18.25Z"/><g><path class="cls-18" d="M136.05,102.13s.98-37.5-3.26-52.82l-9.46-11.74-8.15-1.96-3.59,24.13,11.41,32.28,8.48,9.78,4.57,.33Z"/><path class="cls-11" d="M119.73,40.15s20.65,3.48,10.43,49.34l-10.43-49.34Z"/><path class="cls-21" d="M119.52,41.49s17.31,2.94,7.55,36.06l-7.55-36.06Z"/></g><g><path class="cls-18" d="M50.82,102.13s-.98-37.5,3.26-52.82l9.46-11.74,8.15-1.96,3.59,24.13-11.41,32.28-8.48,9.78-4.57,.33Z"/><path class="cls-11" d="M67.14,40.15s-20.65,3.48-10.43,49.34l10.43-49.34Z"/><path class="cls-21" d="M67.34,41.49s-17.3,2.94-7.55,36.06l7.55-36.06Z"/></g><path class="cls-25" d="M49.51,205.14s-.03,.3-.05,.87c-.16,3.64-.17,18.49,8.1,39.35,0,0,5.87,5.43,10,6.74,0,0-6.95-10.65-10.87-21.74l-7.17-25.22Z"/><path class="cls-10" d="M137.25,205.14s.03,.3,.05,.87c.16,3.64,.17,18.49-8.1,39.35,0,0-5.87,5.43-10,6.74,0,0,6.96-10.65,10.87-21.74l7.17-25.22Z"/><path class="cls-28" d="M49.64,192.77s0,3.59,5.54,26.08c5.54,22.5,15.32,33.91,15.32,33.91l-4.24-107.6-11.74-27.71s-8.15,0-7.5,17.28c.32,8.54-.07,20.59-.55,30.59,.62,9.3-1.11,19.22-2.4,26.99-1.3,7.83-1.3,16.95-1.09,20.87,.22,3.91,2.83,18.04,9.35,28.91,1.35,2.25,2.95,4.14,4.64,5.74-14.89-31.14-7.34-55.06-7.34-55.06Z"/><path class="cls-39" d="M134.83,242.1c6.52-10.87,9.13-25,9.35-28.91,.22-3.91,.22-13.04-1.09-20.87-.41-2.46-.87-5.14-1.27-7.95-.38-.47-.59-.73-.59-.73,0,0-2.28-31.63-1.63-48.91,.65-17.28-7.5-17.28-7.5-17.28l-11.74,27.71-4.24,107.6s9.78-11.41,15.32-33.91c5.54-22.5,5.54-26.08,5.54-26.08,0,0,7.69,24.36-7.75,55.92,2.04-1.76,3.99-3.93,5.6-6.6Z"/><path class="cls-30" d="M44.21,206.14c.32-17.28,4.52-25.43,3.88-37.17-.65-11.74-1.62-27.71-1.62-27.71,0,0-.3,.12-.78,.33,.24,10.83,.54,20.09,.78,23.56,.65,9.35-1.09,19.35-2.39,27.17-1.3,7.83-1.3,16.95-1.09,20.87,.22,3.87,2.77,17.75,9.15,28.58-2.69-6.86-8.18-22.55-7.93-35.63Zm98.89-13.82c-1.3-7.83-3.04-17.83-2.39-27.17,.24-3.46,.54-12.72,.78-23.55-.5-.22-.81-.34-.81-.34,0,0-.97,15.98-1.62,27.71-.65,11.74,3.56,19.89,3.88,37.17,.25,13.15-5.31,28.95-7.98,35.75,6.43-10.84,9-24.81,9.22-28.7,.22-3.91,.22-13.04-1.09-20.87Z"/></g><g><path class="cls-18" d="M70.38,250.58s-8.26-13.04-11.52-25.43c-3.26-12.39-4.13-29.13-4.13-29.13l-1.96-69.78-2.39-18.26s0-9.78,4.13-7.39c4.13,2.39,17.83,31.96,17.83,31.96l3.91,113.25-5.87,4.78Z"/><path class="cls-16" d="M66.47,240.36s-6.74-9.78-9.35-31.95l1.96,1.96,1.52-12.83s3.91,32.61,5.87,42.82Z"/><path class="cls-14" d="M72.76,144.84c-4.2-6.65-9.27-14.62-9.77-15.13-.87-.87-5.87-3.04-5.87-2.39s2.17,39.35,2.17,39.35c2.3,41.13,9.6,79.44,10.18,82.42,.02,.04,.04,.08,.07,.11l6.31-14.98-3.09-89.38Z"/></g><g><path class="cls-18" d="M116.54,250.58s8.26-13.04,11.52-25.43c3.26-12.39,4.13-29.13,4.13-29.13l1.96-69.78,2.39-18.26s0-9.78-4.13-7.39c-4.13,2.39-17.83,31.96-17.83,31.96l-3.91,113.25,5.87,4.78Z"/><path class="cls-40" d="M120.45,240.36s6.74-9.78,9.35-31.95l-1.96,1.96-1.52-12.83s-3.91,32.61-5.87,42.82Z"/><path class="cls-41" d="M114.16,144.84c4.2-6.65,9.27-14.62,9.77-15.13,.87-.87,5.87-3.04,5.87-2.39s-2.17,39.35-2.17,39.35c-2.3,41.13-9.6,79.44-10.18,82.42-.02,.04-.04,.08-.07,.11l-6.31-14.98,3.09-89.38Z"/></g><path d="M50.87,103.19c.1,.1,.27-.03,.17-.13-1.07-1.12-2.21-2.19-3.38-3.21-.73-.64-1.49-1.25-2.28-1.81,0,.09,0,.17,0,.26,.78,.56,1.52,1.18,2.24,1.81,1.13,.98,2.22,2.01,3.25,3.09Zm20.13,143.16c-3.29-1.4-6.57-2.8-9.85-4.2-.02,0-.03-.01-.05,0-.06-1.19-.07-2.38,.06-3.56,.23-2.13,1.35-4.05,2.48-5.83,1.26-1.98,2.68-3.88,4.21-5.64,.09-.11-.08-.24-.17-.13-.88,1-1.69,2.06-2.48,3.13-1.41,1.91-2.77,3.93-3.68,6.13-.66,1.6-.71,3.33-.67,5.04,.05,2.11,.3,4.22,.6,6.3,.2,1.4,.43,2.8,.7,4.19,.08,.05,.17,.1,.25,.15-.48-2.4-.85-4.82-1.1-7.25-.08-.76-.15-1.52-.2-2.29,3.27,1.39,6.54,2.79,9.8,4.18,.13,.05,.21-.15,.09-.2Zm-18.8-80.42l-5.59,4.1c0,.09,0,.18,0,.27,1.91-1.4,3.82-2.79,5.73-4.19,.11-.08-.02-.26-.13-.17Zm11.55-127.92c2.12-.78,4.23-1.6,6.38-2.32,.13-.05,.05-.25-.08-.2-2.14,.72-4.26,1.54-6.38,2.32-.13,.05-.05,.25,.08,.2Zm57.6,192.08c-.79-1.07-1.61-2.13-2.48-3.13-.09-.1-.26,.03-.17,.13,1.54,1.77,2.96,3.67,4.21,5.64,1.13,1.78,2.26,3.7,2.48,5.83,.12,1.18,.12,2.37,.06,3.56-.02,0-.03,0-.05,0-3.29,1.4-6.57,2.8-9.85,4.2-.13,.05-.04,.25,.09,.2l9.8-4.18c-.05,.77-.12,1.53-.2,2.29-.27,2.56-.67,5.13-1.18,7.65,.08-.05,.16-.09,.25-.14,.31-1.52,.57-3.06,.79-4.6,.3-2.09,.55-4.19,.6-6.3,.04-1.71,0-3.44-.67-5.04-.91-2.2-2.27-4.22-3.68-6.13Zm20.42-132.48c-1.01,.67-1.97,1.43-2.88,2.23-1.17,1.02-2.31,2.09-3.38,3.21-.1,.1,.08,.23,.17,.13,1.03-1.08,2.12-2.11,3.25-3.09,.89-.78,1.81-1.53,2.79-2.19,.02-.01,.04-.03,.06-.04,0-.09,0-.17,0-.26Zm-25.35-61.92c2.14,.72,4.26,1.54,6.38,2.32,.13,.05,.21-.15,.08-.2-2.12-.78-4.23-1.6-6.38-2.32-.13-.04-.21,.16-.08,.2Zm17.93,130.24c-.11-.08-.24,.09-.13,.17l6.35,4.65c0-.09,0-.18,0-.27-2.07-1.52-4.14-3.03-6.21-4.55Z"/><g><g><path class="cls-7" d="M134.18,98.85c-.81-.49-27.45,2.08-40.7,3.39-13.25-1.31-39.89-3.88-40.7-3.39-1.09,.65-1.74,3.91-1.74,3.91,0,0,1.96,9.13,4.78,18.48,2.83,9.35,4.35,35.65,5.22,53.91,.87,18.26,5.43,52.82,5.43,52.82l4.57,27.61c7.83,3.26,22.39,2.83,22.39,2.83l.05-.38,.05,.38s14.57,.43,22.39-2.83l4.57-27.61s4.56-34.56,5.43-52.82c.87-18.26,2.39-44.56,5.22-53.91,2.83-9.35,4.78-18.48,4.78-18.48,0,0-.65-3.26-1.74-3.91Z"/><path class="cls-5" d="M71.03,255.58c7.83,3.26,22.39,2.83,22.39,2.83l.05-.38,.05,.38s14.57,.43,22.39-2.83l3.91-23.62h-52.7l3.91,23.62Z"/><path class="cls-20" d="M135.92,102.76s-.65-3.26-1.74-3.91c-.81-.49-27.45,2.08-40.7,3.39-13.25-1.31-39.89-3.88-40.7-3.39-1.09,.65-1.74,3.91-1.74,3.91,0,0,1.96,9.13,4.78,18.48,1.68,5.54,2.89,17.04,3.79,29.29,13.83-.15,50.1-.5,67.77-.32,.89-12.13,2.1-23.47,3.76-28.96,2.83-9.35,4.78-18.48,4.78-18.48Z"/></g><path d="M65.6,188.61c-.19-2.71-.39-5.42-.58-8.14-.45-6.27-.89-12.54-1.34-18.81-.5-7.03-1-14.07-1.5-21.1-.36-5-.71-10-1.07-15-.06-.87-.12-1.74-.19-2.61,0-.14-.23-.11-.22,.03,.19,2.71,.38,5.42,.58,8.13,.45,6.27,.89,12.54,1.34,18.81,.5,7.03,1,14.07,1.5,21.1,.36,5,.71,10,1.07,15,.06,.87,.12,1.74,.18,2.6,0,.14,.23,.11,.22-.03h0Z"/><path d="M121,188.61c.19-2.71,.39-5.42,.58-8.14,.45-6.27,.89-12.54,1.34-18.81,.5-7.03,1-14.07,1.5-21.1,.36-5,.71-10,1.07-15,.06-.87,.12-1.74,.19-2.61,0-.14,.23-.11,.22,.03-.19,2.71-.38,5.42-.58,8.13-.45,6.27-.89,12.54-1.34,18.81l-1.5,21.1c-.36,5-.71,10-1.07,15-.06,.87-.12,1.74-.19,2.6,0,.14-.23,.11-.22-.03h0Z"/></g><path class="cls-4" d="M43.64,66.24c-1.3,13.69,1.96,27.17,1.96,27.17-.41,5.11-.38,19.22-.18,33.7,.67-6.28,1.58-12.68,1.7-16.52,.22-6.74,0-15-.87-21.96-.87-6.96-2.17-15.65-2.17-15.65,0-10.43,4.35-30.87,15.22-38.26,9.8-6.66,27.18-10.32,30.52-10.98-8.79,.54-19.43,3.11-29.22,7.72-11.09,5.22-15.65,21.09-16.96,34.78Zm99.89,0c-1.31-13.7-5.87-29.56-16.96-34.78-9.61-4.52-20.04-7.08-28.73-7.68,3.7,.74,20.71,4.38,30.36,10.95,10.87,7.39,14.78,28.91,14.78,39.35,0,0-.87,7.61-1.74,14.56-.87,6.96-1.09,15.22-.87,21.96,.11,3.31,.79,8.52,1.41,13.91,.17-13.54,.17-26.28-.21-31.09,0,0,3.26-13.48,1.96-27.17Z"/><g><path d="M133.13,96.91s-.05,0-.08-.01l-39.7-10.39-39.7,10.39s-.05,.01-.08,.01c-.06,0-.12-.02-.17-.05-.07-.05-.12-.12-.14-.21-.02-.1-1.68-10.03,4.64-31.3,5.62-18.89,10.08-30.37,12.57-32.33,1.34-1.05,8.73-6.3,22.87-6.3s21.54,5.25,22.87,6.3c2.49,1.96,6.95,13.44,12.57,32.33,6.32,21.27,4.66,31.2,4.65,31.3-.01,.09-.06,.16-.14,.21-.05,.03-.11,.05-.17,.05h0Z"/><path class="cls-6" d="M128.49,65.44c-6.38-21.45-10.43-30.58-12.46-32.17-2.03-1.59-9.49-6.23-22.68-6.23h0s0,0,0,0c-13.19,0-20.65,4.64-22.68,6.23-2.03,1.59-6.09,10.72-12.46,32.17-6.38,21.45-4.64,31.16-4.64,31.16l39.78-10.41,39.78,10.41s1.74-9.71-4.64-31.16Z"/><path class="cls-36" d="M126.57,65.44c-6.03-21.45-9.86-30.58-11.78-32.17-1.92-1.59-8.97-6.23-21.44-6.23h0s0,0,0,0c-12.46,0-19.52,4.64-21.44,6.23-1.92,1.59-5.75,10.72-11.78,32.17-6.03,21.45-4.38,31.16-4.38,31.16l37.6-10.41,37.6,10.41s1.64-9.71-4.38-31.16Z"/><path class="cls-9" d="M55.38,92.98s8.04-18.26,37.83-18.26,38.47,18.69,38.47,18.69l-33.91,2.61-42.17-2.17-.22-.87Z"/></g><g><path class="cls-2" d="M94.92,30.44s-.42-.85-1.55-1.15h0s-.01,0-.02,0c0,0-.01,0-.02,0h0c-1.13,.31-1.55,1.16-1.55,1.16v1.45s.06,.02,.17,.05v-1.28s.38-.85,1.38-1.15h0s.01,0,.02,0c0,0,.01,0,.02,0h0c1,.31,1.38,1.16,1.38,1.16v1.28c.11-.03,.17-.05,.17-.05v-1.45Z"/><g><path class="cls-15" d="M94.75,30.66s-.38-.85-1.38-1.15h0s0,0-.02,0c0,0,0,0-.02,0h0c-1,.31-1.38,1.16-1.38,1.16v1.28s.06,.02,.1,.03v-1.13s.35-.79,1.29-1.07h0s0,0,.01,0c0,0,.01,0,.02,0h0c.93,.29,1.29,1.08,1.29,1.08v1.13s.07-.02,.1-.03v-1.28Z"/><path class="cls-27" d="M93.37,29.77h0s-.01,0-.02,0c0,0,0,0-.01,0h0c-.94,.29-1.29,1.08-1.29,1.08v1.13c.29,.07,.78,.18,1.31,.18s1.02-.1,1.3-.18v-1.13s-.35-.79-1.29-1.07Z"/></g></g><g><path d="M63.29,36.49c-1.86,1.07-3.73,2.04-5.69,2.89-2.55,1.11-5.07,2.33-7.36,3.9-.94,1.84-1.82,3.64-1.82,3.64,0,0-1.09,3.26,2.42,3.56,3.55,.31,10.37-1.84,12.16-7.06,.96-2.8,1.29-5.38,.72-7.18-.14,.08-.29,.17-.43,.25Z"/><path class="cls-2" d="M48.42,46.78s-1.09,3.15,2.39,3.37c3.48,.22,10.11-1.96,11.96-6.96,1.8-4.87,1.63-9.13-2.17-9.46-3.8-.33-7.93,5-9.13,7.17-1.2,2.17-3.04,5.87-3.04,5.87Z"/><path class="cls-23" d="M62.05,34.65c.36,1.45-1.09,1.81-4.06,2.61-3.51,.94-7.11,5.14-7.93,6.33-.87,1.67-1.63,3.2-1.63,3.2,0,0-1.09,3.15,2.39,3.37,3.25,.2,9.25-1.68,11.53-6.01,.2-.57,.41-1.2,.64-1.89,1.81-5.43-.94-7.61-.94-7.61Z"/><path d="M62.76,38.64c-.3,.37-.6,.76-.87,1.16-.08,.12,.09,.25,.17,.13,.24-.34,.49-.67,.74-1,.29-.37,.65-.88,1.08-1.16,0-.08,0-.17-.01-.25-.44,.25-.8,.74-1.11,1.11Z"/><g><path d="M59.55,35.23c0,.38-.31,.69-.69,.69s-.69-.31-.69-.69,.31-.69,.69-.69,.69,.31,.69,.69Z"/><path class="cls-34" d="M59.31,35.15c0,.27-.22,.49-.49,.49s-.49-.22-.49-.49,.22-.49,.49-.49,.49,.22,.49,.49Z"/></g><g><path class="cls-12" d="M62.55,42.69c.12-.19,.23-.37,.34-.54,.26-1.9-.03-4.38-3.16-4.6,0,0-2.97,4.28-3.19,4.42-.22,.14-7.75,4.85-7.75,4.85,0,0-.31,.83-.38,1.89,.08,.24,.22,.47,.41,.67,1.27,.18,9.21,.96,13.74-6.69Z"/><path class="cls-22" d="M50.82,50.15c3.35,.21,9.61-1.8,11.72-6.4,.12-.4,.27-.97,.35-1.61-.11,.17-.22,.35-.34,.54-4.52,7.65-12.46,6.87-13.74,6.69,.38,.4,1,.71,2,.77Z"/></g><g><path class="cls-34" d="M48.86,46.67s-1.2,2.72,4.57,1.63c5.76-1.09,9.35-5.65,8.8-8.8-.54-3.15-5.98-2.06-9.13,1.85-3.15,3.91-4.24,5.33-4.24,5.33Z"/><path class="cls-12" d="M53.8,47.07c2.01,.74,4.5-.98,5.55-3.84,.77-2.1,.56-4.23-.41-5.51-1.88,.28-4.18,1.56-5.85,3.62-.57,.7-1.06,1.32-1.5,1.87,.03,1.83,.83,3.35,2.21,3.85Z"/><path d="M48.76,46.63c-.2,.46-.14,1.03,.2,1.4,.37,.42,.98,.55,1.51,.61,1.2,.13,2.48-.1,3.64-.37,2.34-.55,4.52-1.77,6.17-3.52,1.22-1.3,2.21-3.05,2.11-4.88-.08-1.4-1.09-2.22-2.45-2.3-1.79-.11-3.6,.81-4.99,1.85-.96,.71-1.71,1.6-2.45,2.52-.73,.91-1.46,1.82-2.19,2.73-.51,.65-1.03,1.29-1.53,1.95-.09,.11,.08,.25,.17,.13,.66-.86,1.34-1.71,2.02-2.56,1.75-2.19,3.35-4.48,5.95-5.71,1.47-.7,4.27-1.39,5.09,.6,.75,1.81-.57,4.03-1.72,5.34-2.26,2.6-5.93,4.09-9.34,4.04-.95-.01-2.53-.46-1.98-1.73,.06-.13-.14-.21-.2-.09Z"/></g><g><path class="cls-19" d="M55.82,42.87c3.04-1.63,4.05-.13,4.19,1.44,.14-1.76-.65-4.09-4.19-2.2-4.46,2.39-4.35,6.09-4.35,6.09l.07,.07c.2-1.18,1.01-3.64,4.28-5.39Z"/><path class="cls-42" d="M53.42,48.31c2.7-.51,4.93-1.79,6.47-3.32,.05-.21,.09-.43,.11-.67-.13-1.57-1.15-3.07-4.19-1.44-3.27,1.75-4.08,4.21-4.28,5.39l.27,.27c.47-.04,1-.11,1.62-.22Z"/></g><path d="M49.62,45.81s.01-.08,.02-.13c-.55,.7-.78,1-.78,1,0,0-1.2,2.72,4.57,1.63,.89-.17,1.73-.42,2.51-.74-.84,.21-6.92,1.57-6.31-1.76Z"/></g><g><path d="M123.39,36.49c1.86,1.07,3.73,2.04,5.69,2.89,2.55,1.11,5.08,2.33,7.36,3.9,.94,1.84,1.82,3.64,1.82,3.64,0,0,1.09,3.26-2.42,3.56-3.55,.31-10.37-1.84-12.16-7.06-.96-2.8-1.29-5.38-.72-7.18,.14,.08,.29,.17,.43,.25Z"/><path class="cls-2" d="M138.26,46.78s1.09,3.15-2.39,3.37c-3.48,.22-10.11-1.96-11.96-6.96-1.8-4.87-1.63-9.13,2.17-9.46,3.8-.33,7.93,5,9.13,7.17,1.2,2.17,3.04,5.87,3.04,5.87Z"/><path class="cls-23" d="M124.64,34.65c-.36,1.45,1.09,1.81,4.06,2.61,3.51,.94,7.11,5.14,7.93,6.33,.86,1.67,1.63,3.2,1.63,3.2,0,0,1.09,3.15-2.39,3.37-3.25,.2-9.25-1.68-11.53-6.01-.2-.57-.41-1.2-.64-1.89-1.81-5.43,.94-7.61,.94-7.61Z"/><path d="M123.92,38.64c.31,.37,.6,.76,.87,1.16,.08,.12-.09,.25-.17,.13-.24-.34-.49-.67-.74-1-.29-.37-.65-.88-1.07-1.16,0-.08,0-.17,0-.25,.45,.25,.8,.74,1.11,1.11Z"/><g><path d="M127.14,35.23c0,.38,.31,.69,.69,.69s.69-.31,.69-.69-.31-.69-.69-.69-.69,.31-.69,.69Z"/><path class="cls-34" d="M127.38,35.15c0,.27,.22,.49,.49,.49s.49-.22,.49-.49-.22-.49-.49-.49-.49,.22-.49,.49Z"/></g><g><path class="cls-12" d="M124.13,42.69c-.11-.19-.22-.37-.34-.54-.26-1.9,.03-4.38,3.16-4.6,0,0,2.97,4.28,3.19,4.42,.22,.14,7.75,4.85,7.75,4.85,0,0,.31,.83,.38,1.89-.09,.24-.22,.47-.41,.67-1.27,.18-9.21,.96-13.74-6.69Z"/><path class="cls-22" d="M135.87,50.15c-3.35,.21-9.61-1.8-11.72-6.4-.12-.4-.27-.97-.35-1.61,.11,.17,.22,.35,.34,.54,4.52,7.65,12.46,6.87,13.74,6.69-.38,.4-1,.71-2,.77Z"/></g><g><path class="cls-34" d="M137.83,46.67s1.2,2.72-4.56,1.63c-5.76-1.09-9.35-5.65-8.8-8.8,.54-3.15,5.98-2.06,9.13,1.85,3.15,3.91,4.24,5.33,4.24,5.33Z"/><path class="cls-12" d="M132.88,47.07c-2.01,.74-4.5-.98-5.55-3.84-.77-2.1-.56-4.23,.41-5.51,1.88,.28,4.18,1.56,5.85,3.62,.57,.7,1.06,1.32,1.5,1.87-.03,1.83-.83,3.35-2.21,3.85Z"/><path d="M137.92,46.63c.2,.46,.14,1.03-.2,1.4-.37,.42-.98,.55-1.51,.61-1.2,.13-2.48-.1-3.64-.37-2.34-.55-4.52-1.77-6.17-3.52-1.22-1.3-2.21-3.05-2.11-4.88,.08-1.4,1.09-2.22,2.45-2.3,1.79-.11,3.59,.81,4.99,1.85,.96,.71,1.71,1.6,2.45,2.52,.73,.91,1.46,1.82,2.19,2.73,.51,.65,1.03,1.29,1.53,1.95,.08,.11-.09,.25-.17,.13-.66-.86-1.34-1.71-2.02-2.56-1.75-2.19-3.35-4.48-5.95-5.71-1.47-.7-4.27-1.39-5.09,.6-.75,1.81,.57,4.03,1.71,5.34,2.26,2.6,5.93,4.09,9.35,4.04,.95-.01,2.53-.46,1.98-1.73-.06-.13,.14-.21,.2-.09Z"/></g><g><path class="cls-19" d="M130.87,42.87c-3.04-1.63-4.05-.13-4.19,1.44-.15-1.76,.65-4.09,4.19-2.2,4.46,2.39,4.35,6.09,4.35,6.09l-.07,.07c-.2-1.18-1.01-3.64-4.28-5.39Z"/><path class="cls-42" d="M133.26,48.31c-2.7-.51-4.93-1.79-6.47-3.32-.05-.21-.09-.43-.11-.67,.13-1.57,1.15-3.07,4.19-1.44,3.27,1.75,4.08,4.21,4.28,5.39l-.27,.27c-.47-.04-1-.11-1.62-.22Z"/></g><path d="M137.06,45.81s-.01-.08-.02-.13c.55,.7,.78,1,.78,1,0,0,1.2,2.72-4.56,1.63-.89-.17-1.73-.42-2.51-.74,.85,.21,6.92,1.57,6.31-1.76Z"/></g><g><path class="cls-17" d="M45.92,109.77s1.69,.65,2.23,1.2c0,0,1.14,1.41,.6,4.89,0,0-.49,1.41-2.01,1.52-1.52,.11-1.68-2.34-1.68-2.34l.87-5.27Z"/><path d="M41.74,112.21s2.61-2.72,4.02-2.5c1.41,.22,1.74,5.54,1.2,6.96-.54,1.41-5.22-4.46-5.22-4.46Z"/><g><path class="cls-37" d="M46.63,118.94c-.03-.15-.12-.44-.45-.65-.24-.15-.55-.22-.94-.22-.91,0-2.27,.41-4.04,1.22-1.23,.56-2.23,1.15-2.98,1.75-1.43,1.15-1.47,1.98-1.47,2.08,0,.09,.04,.18,.12,.24,.05,.04,.12,.07,.19,.07,.02,0,.05,0,.07,0,5.73-1.32,9.66-3.59,9.51-4.48Z"/><path class="cls-18" d="M36.69,123.19s-1.38-3.62,1.67-7.46c3.04-3.84,5.72-5.51,6.88-5.22,1.16,.29,2.32,5.58,1.45,8.62l-7.03,2.46-2.97,1.59Z"/><path class="cls-8" d="M45.24,111.49c.82,.21,1.65,2.94,1.74,5.6,.11-2.92-.82-6.34-1.74-6.57-1.16-.29-3.84,1.38-6.88,5.22-1.79,2.26-2.05,4.45-1.96,5.86,.09-1.35,.54-3.09,1.96-4.88,3.04-3.84,5.72-5.51,6.88-5.22Z"/><g><path class="cls-13" d="M37.05,123.12c6.3-1.45,9.35-3.69,9.28-4.13-.02-.13-.1-.31-.31-.44-1.87,1.56-6.09,2.45-7.61,2.73-1.36,1.09-1.36,1.84-1.36,1.84Z"/><path d="M41.32,119.57c-1.36,.62-2.28,1.2-2.91,1.71,1.52-.28,5.73-1.17,7.61-2.73-.49-.3-1.7-.35-4.69,1.02Z"/></g></g></g><g><path class="cls-17" d="M140.86,109.77s-1.68,.65-2.23,1.2c0,0-1.14,1.41-.6,4.89,0,0,.49,1.41,2.01,1.52,1.52,.11,1.69-2.34,1.69-2.34l-.87-5.27Z"/><path d="M145.05,112.21s-2.61-2.72-4.02-2.5c-1.41,.22-1.74,5.54-1.2,6.96,.54,1.41,5.22-4.46,5.22-4.46Z"/><g><path class="cls-37" d="M140.16,118.94c.03-.15,.12-.44,.45-.65,.24-.15,.55-.22,.94-.22,.91,0,2.27,.41,4.04,1.22,1.23,.56,2.23,1.15,2.98,1.75,1.43,1.15,1.47,1.98,1.47,2.08,0,.09-.04,.18-.12,.24-.05,.04-.12,.07-.19,.07-.02,0-.05,0-.07,0-5.73-1.32-9.66-3.59-9.51-4.48Z"/><path class="cls-18" d="M150.1,123.19s1.38-3.62-1.67-7.46c-3.04-3.84-5.72-5.51-6.88-5.22-1.16,.29-2.32,5.58-1.45,8.62l7.03,2.46,2.97,1.59Z"/><path class="cls-8" d="M141.55,111.49c-.82,.21-1.65,2.94-1.74,5.6-.11-2.92,.82-6.34,1.74-6.57,1.16-.29,3.84,1.38,6.88,5.22,1.79,2.26,2.05,4.45,1.96,5.86-.08-1.35-.54-3.09-1.96-4.88-3.04-3.84-5.72-5.51-6.88-5.22Z"/><g><path class="cls-13" d="M149.74,123.12c-6.3-1.45-9.35-3.69-9.28-4.13,.02-.13,.1-.31,.31-.44,1.88,1.56,6.09,2.45,7.61,2.73,1.36,1.09,1.36,1.84,1.36,1.84Z"/><path d="M145.47,119.57c1.36,.62,2.28,1.2,2.91,1.71-1.52-.28-5.73-1.17-7.61-2.73,.49-.3,1.7-.35,4.69,1.02Z"/></g></g></g><g><g><g><path d="M114.5,241.44c-.23-.15-.51-.21-.9-.21-.53,0-1.24,.13-2.21,.31-.84,.15-1.89,.35-3.19,.52-5.97,.79-13.95,1.05-14.83,1.08-.89-.03-8.87-.29-14.84-1.08-1.3-.17-2.35-.36-3.19-.52-.97-.18-1.68-.31-2.21-.31-.38,0-.67,.07-.9,.21-.7,.44-.77,1.48-.77,3.59,0,.1,.04,.2,.1,.26,.08,.08,2.05,1.99,5.97,2.59,3.65,.56,11.8,1.43,15.77,1.44h.03s.04,0,.04,0h.03s0,0,0,0c3.97-.02,12.12-.88,15.77-1.44,3.92-.61,5.89-2.51,5.97-2.59,.07-.06,.1-.16,.1-.26,0-2.11-.08-3.15-.77-3.59Z"/><g><path class="cls-37" d="M114.36,241.74c.09,.53,.11,1.29,.11,2.33,0,0-1.9,1.92-5.69,2.52-3.76,.59-11.63,1.42-15.37,1.44h0s-.03,0-.05,0h-.05c-3.73-.01-11.61-.84-15.37-1.44-3.79-.6-5.69-2.52-5.69-2.52,0-1.04,.02-1.8,.11-2.33-.55,.35-.62,1.28-.62,3.29,0,0,1.94,1.92,5.82,2.52,3.85,.6,11.91,1.42,15.74,1.44h.1c3.82-.01,11.89-.84,15.74-1.44,3.88-.6,5.82-2.52,5.82-2.52,0-2.01-.07-2.94-.62-3.29Z"/><path class="cls-18" d="M77.95,246.59c3.76,.59,11.63,1.42,15.37,1.44h0s.04,0,.05,0h.05c3.73-.01,11.61-.84,15.37-1.44,3.79-.6,5.69-2.52,5.69-2.52,0-1.04-.02-1.8-.11-2.33-.76-.48-2.44,.16-6.12,.65-6.05,.8-14.16,1.06-14.87,1.08-.71-.02-8.82-.28-14.87-1.08-3.68-.49-5.36-1.14-6.12-.65-.09,.53-.11,1.29-.11,2.33,0,0,1.9,1.92,5.69,2.52Z"/></g></g><g><path class="cls-13" d="M104.42,244.44s-7.75-1.47-8.06-1.52c-.28-.05-2.48,.33-2.98,.42-.51-.09-2.71-.46-2.98-.42-.31,.05-8.06,1.52-8.06,1.52,0,0-.1,1.96,2.88,2.5,0,0,3.77,.54,8.17,.54h0c4.4,0,8.17-.54,8.17-.54,2.98-.54,2.88-2.5,2.88-2.5Z"/><path d="M104.83,243.25s-8.04-1.46-8.37-1.51c-.29-.05-2.57,.33-3.1,.41-.53-.09-2.81-.46-3.1-.41-.33,.05-8.37,1.51-8.37,1.51,0,0-.11,1.95,2.99,2.49,0,0,3.91,.54,8.48,.54h0c4.56,0,8.48-.54,8.48-.54,3.1-.54,2.99-2.49,2.99-2.49Z"/></g></g><g><g><path d="M115.3,237.31c-.24-.14-.53-.21-.93-.21-.55,0-1.28,.13-2.29,.31-.88,.15-1.97,.35-3.31,.52-6.2,.79-14.48,1.05-15.39,1.08-.92-.03-9.21-.29-15.41-1.08-1.35-.17-2.44-.36-3.31-.52-1.01-.18-1.74-.31-2.29-.31-.4,0-.69,.07-.93,.21-.72,.44-.8,1.48-.8,3.59,0,.1,.04,.2,.11,.26,.08,.08,2.13,1.99,6.2,2.59,3.79,.56,12.25,1.43,16.37,1.44h.03s.05,0,.05,0h.03s0,0,0,0c4.12-.01,12.58-.88,16.37-1.44,4.07-.61,6.12-2.51,6.2-2.59,.07-.06,.11-.16,.11-.26,0-2.1-.08-3.14-.8-3.59Z"/><g><path class="cls-37" d="M115.16,237.61c.1,.53,.12,1.29,.12,2.33,0,0-1.97,1.92-5.9,2.52-3.9,.59-12.07,1.42-15.95,1.44h0s-.04,0-.05,0h-.05c-3.88-.02-12.05-.84-15.95-1.44-3.94-.6-5.9-2.52-5.9-2.52,0-1.04,.02-1.8,.12-2.33-.57,.35-.64,1.28-.64,3.29,0,0,2.02,1.92,6.05,2.52,4,.59,12.37,1.42,16.33,1.44h0s.04,0,.05,0h.05c3.97-.01,12.34-.84,16.34-1.44,4.03-.6,6.05-2.52,6.05-2.52,0-2.01-.08-2.94-.65-3.29Z"/><path class="cls-18" d="M77.37,242.46c3.9,.59,12.07,1.42,15.95,1.44h0s.04,0,.05,0h.05c3.88-.02,12.05-.84,15.95-1.44,3.94-.6,5.9-2.52,5.9-2.52,0-1.04-.02-1.8-.12-2.33-.79-.49-2.53,.16-6.35,.65-6.28,.8-14.7,1.06-15.43,1.08-.74-.02-9.15-.28-15.43-1.08-3.82-.49-5.57-1.14-6.36-.65-.1,.53-.12,1.29-.12,2.33,0,0,1.97,1.92,5.9,2.52Z"/></g></g><g><path class="cls-13" d="M104.83,240.3s-8.04-1.47-8.37-1.52c-.29-.05-2.57,.33-3.1,.42-.53-.09-2.81-.46-3.1-.42-.33,.05-8.37,1.52-8.37,1.52,0,0-.11,1.96,2.99,2.5,0,0,3.91,.54,8.48,.54h0c4.56,0,8.48-.54,8.48-.54,3.1-.54,2.99-2.5,2.99-2.5Z"/><path d="M105.27,239.12s-8.35-1.46-8.69-1.51c-.3-.05-2.67,.33-3.21,.41-.54-.09-2.92-.46-3.21-.41-.34,.05-8.69,1.51-8.69,1.51,0,0-.11,1.95,3.1,2.49,0,0,4.06,.54,8.8,.54h0c4.74,0,8.8-.54,8.8-.54,3.21-.54,3.1-2.49,3.1-2.49Z"/></g></g><g><path d="M115.84,234.06c-.24-.13-.54-.19-.95-.19-.57,0-1.31,.12-2.35,.28-.9,.14-2.02,.31-3.39,.47-6.35,.72-14.84,.95-15.77,.97-.95-.02-9.44-.26-15.79-.97-1.38-.16-2.5-.33-3.39-.47-1.03-.16-1.78-.28-2.35-.28-.41,0-.71,.06-.95,.19-.74,.4-.82,1.34-.82,3.25,0,.09,.04,.18,.11,.24,.09,.07,2.18,1.8,6.35,2.35,3.88,.51,12.55,1.29,16.78,1.31h.03s.05,0,.05,0h.03s0,0,0,0c4.22-.01,12.9-.79,16.78-1.31,4.17-.55,6.27-2.28,6.35-2.35,.07-.06,.11-.14,.11-.24,0-1.91-.08-2.85-.82-3.25Z"/><g><path class="cls-37" d="M115.7,234.33c.1,.48,.12,1.16,.12,2.11,0,0-2.02,1.74-6.05,2.28-4,.54-12.37,1.29-16.34,1.3h0s-.04,0-.05,0h-.05c-3.97-.01-12.34-.77-16.34-1.31-4.03-.54-6.05-2.28-6.05-2.28,0-.95,.02-1.63,.12-2.11-.58,.32-.66,1.16-.66,2.98,0,0,2.06,1.74,6.19,2.28,4.09,.54,12.67,1.29,16.74,1.3h0s.04,0,.05,0h.05c4.07-.01,12.64-.77,16.74-1.3,4.13-.54,6.2-2.28,6.2-2.28,0-1.82-.08-2.67-.66-2.98Z"/><path class="cls-18" d="M76.97,238.73c4,.54,12.37,1.29,16.34,1.3h0s.04,0,.05,0h.05c3.97-.01,12.35-.77,16.34-1.31,4.03-.54,6.05-2.28,6.05-2.28,0-.95-.02-1.63-.12-2.11-.81-.44-2.59,.15-6.51,.59-6.44,.73-15.06,.96-15.81,.98-.76-.02-9.38-.25-15.81-.98-3.92-.44-5.7-1.03-6.51-.59-.1,.48-.12,1.16-.12,2.11,0,0,2.02,1.74,6.05,2.28Z"/></g></g></g><g><path d="M120.61,188.04h-54.43s-2.9,.29-2.75,4.35c.14,4.06,4.06,35.36,4.06,35.36,0,0,3.04,4.05,25.88,4.06h0s.02,0,.03,0h.03c22.84,0,25.88-4.06,25.88-4.06,0,0,3.91-31.3,4.06-35.36,.15-4.06-2.75-4.35-2.75-4.35Z"/><path class="cls-24" d="M93.42,229.34h-.06c-16.29,0-21.94-2.1-23.57-2.96-.78-6.31-3.79-30.65-3.91-34.08-.04-1.22,.3-1.69,.55-1.8h53.92c.25,.11,.59,.58,.55,1.8-.12,3.5-3.27,28.98-3.91,34.08-1.63,.86-7.28,2.96-23.57,2.96h0Z"/></g><g><path d="M56.47,130.8l-5.94-25.8s-1.74,22.32,.87,61.3c2.61,38.98,6.52,40,6.52,40,0,0,1.45-9.71,.58-37.1-.84-26.51-2.03-38.4-2.03-38.4Z"/><path class="cls-29" d="M51.4,166.31c2.61,38.98,6.52,40,6.52,40,0,0,.46-3.11,.71-10.76-.32-.79-5.64-14.66-5.64-74.09,0-2.18-.03-4.23-.09-6.15l-2.37-10.3s-1.74,22.32,.87,61.3Z"/><path d="M51.4,166.31c2.61,38.98,6.52,40,6.52,40,0,0,.16-1.04,.33-3.4-.03-.1-.04-.15-.04-.15-7.82-38.69-6.09-83.26-6.09-83.26l3.96,9.61-5.55-24.11s-1.74,22.32,.87,61.3Z"/></g><g><path d="M136.26,105l-5.94,25.8s-1.19,11.9-2.03,38.4c-.87,27.39,.58,37.1,.58,37.1,0,0,3.91-1.02,6.52-40,2.61-38.98,.87-61.3,.87-61.3Z"/><path class="cls-29" d="M135.39,166.31c2.61-38.98,.87-61.3,.87-61.3l-2.06,8.95c-.09,2.31-.14,4.8-.14,7.5,0,61.3-5.65,74.13-5.65,74.13l-.24,.32c.25,7.4,.7,10.41,.7,10.41,0,0,3.91-1.02,6.52-40Z"/><path d="M135.39,166.31c2.61-38.98,.87-61.3,.87-61.3l-5.89,25.58h.02s4.57-11.08,4.57-11.08c0,0,1.74,44.56-6.09,83.26,0,0-.11,.37-.27,.95,.15,1.8,.27,2.6,.27,2.6,0,0,3.91-1.02,6.52-40Z"/></g><g><path class="cls-31" d="M129.88,121.67l5.36-21.74c-10.96-24.21-40.81-22.67-41.85-22.61-1.04-.06-30.89-1.6-41.85,22.61l5.36,21.74s.58,3.77,4.78,2.32c4.2-1.45,19.54-3.91,31.71-3.91,12.17,0,27.51,2.46,31.71,3.91,4.2,1.45,4.78-2.32,4.78-2.32Z"/><path d="M51.54,99.93l5.36,21.74s.58,3.77,4.78,2.32c4.2-1.45,19.54-3.91,31.71-3.91,12.17,0,27.51,2.46,31.71,3.91,4.2,1.45,4.78-2.32,4.78-2.32l5.36-21.74c-2.44-5.39-5.82-9.51-9.62-12.64l-2.62,5.69s9.78,3.7,8.26,11.3c-1.52,7.61-4.56,16.74-4.56,16.74,0,0-14.35-4.57-33.26-4.57,0,0-.04,.03-.12,.09-.08-.06-.12-.09-.12-.09-18.91,0-33.26,4.57-33.26,4.57,0,0-3.04-9.13-4.57-16.74-1.52-7.61,8.26-11.3,8.26-11.3l-2.58-5.61c-3.75,3.13-7.1,7.22-9.52,12.57Z"/><g><path d="M93.39,77.32c-1.04-.06-30.89-1.6-41.85,22.61l.37,1.51c1.36-1.32,8.82-8.19,21.7-12.23,0,0,.01,0,.02,0,.19-.06,.39-.12,.59-.18,.2-.06,.4-.12,.61-.18,0,0,0,0,0,0,5.34-1.54,11.59-2.6,18.7-2.61,7.11,.01,13.36,1.07,18.7,2.61,0,0,0,0,0,0,.2,.06,.41,.12,.61,.18,.2,.06,.39,.12,.59,.18,0,0,.01,0,.02,0,12.28,3.85,19.64,10.27,21.47,12l.32-1.29c-10.96-24.21-40.81-22.67-41.85-22.61Z"/><path class="cls-35" d="M53.77,98.2c9.83-18.22,31.37-19.68,37.95-19.68,.93,0,1.5,.03,1.6,.04,.02,0,.05,0,.07,0s.05,0,.07,0c.1,0,.67-.04,1.6-.04,6.52,0,27.8,1.44,37.73,19.28-3.63-2.81-10.02-6.95-18.97-9.76-.18-.06-.34-.1-.5-.15l-.12-.04-.13-.04c-.16-.05-.33-.1-.49-.15-6.07-1.75-12.47-2.65-19.05-2.66-6.58,.01-12.99,.91-19.05,2.66-.17,.05-.33,.1-.5,.15l-.13,.04-.14,.04c-.15,.05-.31,.09-.46,.14-9.39,2.95-15.98,7.37-19.49,10.16h0Z"/></g></g></g></g><image width="154" height="127" transform="translate(186.79 220.1) rotate(-180) scale(1.21)" xlink:href="../../../Users/camil/Downloads/terminator.png"/></svg>